<?xml version="1.0" encoding="iso-8859-1"?>
<!-- Generator: Adobe Illustrator 19.0.0, SVG Export Plug-In . SVG Version: 6.00 Build 0)  -->
<svg version="1.1" id="Capa_1" xmlns="http://www.w3.org/2000/svg" xmlns:xlink="http://www.w3.org/1999/xlink" x="0px" y="0px"
	 viewBox="0 0 491.312 491.312" style="enable-background:new 0 0 491.312 491.312;" xml:space="preserve">
<g>
	<g>
		<path d="M269.656,285.656c0,8.672-10.992,16-24,16s-24-7.328-24-16h-16c0,17.648,17.944,32,40,32c22.056,0,40-14.352,40-32
			H269.656z"/>
	</g>
</g>
<g>
	<g>
		<circle cx="293.656" cy="245.656" r="8"/>
	</g>
</g>
<g>
	<g>
		<circle cx="197.656" cy="245.656" r="8"/>
	</g>
</g>
<g>
	<g>
		<path d="M344.68,205.96c-13.44-41.888-52.736-72.304-99.024-72.304c-46.288,0-85.584,30.416-99.024,72.304
			c-20.624,1.576-36.976,18.68-36.976,39.696s16.352,38.12,36.976,39.696c13.44,41.888,52.736,72.304,99.024,72.304
			c46.288,0,85.584-30.416,99.024-72.304c20.624-1.576,36.976-18.68,36.976-39.696S365.304,207.536,344.68,205.96z M142.848,268.552
			c-9.904-2.952-17.192-12.04-17.192-22.896c0-10.856,7.288-19.944,17.192-22.896c-0.704,4.88-1.192,9.824-1.192,14.896v16
			C141.656,258.728,142.144,263.672,142.848,268.552z M333.656,253.656c0,48.52-39.48,88-88,88c-48.52,0-88-39.48-88-88v-16
			c0-43.424,31.64-79.504,73.064-86.632c-5.928,11.976-9.064,25.128-9.064,38.632c0,13.232,10.768,24,24,24s24-10.768,24-24h-16
			c0,4.408-3.584,8-8,8c-4.416,0-8-3.592-8-8c0-14.12,4.144-27.784,11.968-39.528l0.176-0.256
			c46.592,2.176,83.856,40.656,83.856,87.784V253.656z M348.464,268.552c0.704-4.88,1.192-9.824,1.192-14.896v-16
			c0-5.072-0.488-10.016-1.192-14.896c9.904,2.952,17.192,12.04,17.192,22.896S358.368,265.6,348.464,268.552z"/>
	</g>
</g>
<g>
	<g>
		<path d="M245.656,85.656c-92.632,0-168,71.776-168,160s75.368,160,168,160c39.808,0,78.424-13.504,108.72-38.008l-10.064-12.44
			c-27.464,22.216-62.496,34.448-98.656,34.448c-83.816,0-152-64.6-152-144s68.184-144,152-144s152,64.6,152,144
			c0,37.696-15.272,73.336-43.008,100.36l11.168,11.464c30.848-30.064,47.84-69.776,47.84-111.824
			C413.656,157.432,338.288,85.656,245.656,85.656z"/>
	</g>
</g>
<g>
	<g>
		<polygon points="272,24 253.656,42.344 253.656,5.656 237.656,5.656 237.656,42.344 219.312,24 208,35.312 245.656,72.968 
			283.312,35.312 		"/>
	</g>
</g>
<g>
	<g>
		<polygon points="491.312,11.312 480,0 389.656,90.344 389.656,45.656 373.656,45.656 373.656,117.656 445.656,117.656 
			445.656,101.656 400.968,101.656 		"/>
	</g>
</g>
<g>
	<g>
		<polygon points="35.312,208 24,219.312 42.344,237.656 5.656,237.656 5.656,253.656 42.344,253.656 24,272 35.312,283.312 
			72.968,245.656 		"/>
	</g>
</g>
<g>
	<g>
		<polygon points="101.656,45.656 101.656,90.344 11.312,0 0,11.312 90.344,101.656 45.656,101.656 45.656,117.656 117.656,117.656 
			117.656,45.656 		"/>
	</g>
</g>
<g>
	<g>
		<polygon points="245.656,418.344 208,456 219.312,467.312 237.656,448.968 237.656,485.656 253.656,485.656 253.656,448.968 
			272,467.312 283.312,456 		"/>
	</g>
</g>
<g>
	<g>
		<polygon points="45.656,373.656 45.656,389.656 90.344,389.656 0,480 11.312,491.312 101.656,400.968 101.656,445.656 
			117.656,445.656 117.656,373.656 		"/>
	</g>
</g>
<g>
	<g>
		<polygon points="485.656,237.656 448.968,237.656 467.312,219.312 456,208 418.344,245.656 456,283.312 467.312,272 
			448.968,253.656 485.656,253.656 		"/>
	</g>
</g>
<g>
	<g>
		<polygon points="400.968,389.656 445.656,389.656 445.656,373.656 373.656,373.656 373.656,445.656 389.656,445.656 
			389.656,400.968 480,491.312 491.312,480 		"/>
	</g>
</g>
<g>
</g>
<g>
</g>
<g>
</g>
<g>
</g>
<g>
</g>
<g>
</g>
<g>
</g>
<g>
</g>
<g>
</g>
<g>
</g>
<g>
</g>
<g>
</g>
<g>
</g>
<g>
</g>
<g>
</g>
</svg>
