<svg id="Capa_1" enable-background="new 0 0 511.981 511.981" height="512" viewBox="0 0 511.981 511.981" width="512" xmlns="http://www.w3.org/2000/svg"><g><path d="m501.221 200.717c-.981-3.016-3.755-5.087-6.925-5.174-4.734-.13-9.471-.26-14.205-.38-.065-.001-.13-.002-.194-.002-4.054 0-7.391 3.234-7.494 7.31-.104 4.141 3.167 7.583 7.308 7.688 2.939.075 5.879.153 8.818.233 11.211 37.534 11.211 75.515 0 113.049-19.141.517-38.319.962-57.519 1.352 12.606-19.997 22.633-37.988 30.478-54.687.949-2.02.949-4.358 0-6.378-7.845-16.7-17.874-34.692-30.481-54.691 6.274.127 12.549.252 18.815.394.058.001.115.002.172.002 4.063 0 7.403-3.248 7.495-7.332.093-4.141-3.188-7.573-7.329-7.667-18.492-.416-37.018-.77-55.568-1.066v-59.131c10.408-.128 20.804-.512 31.142-1.177 10.793-.693 19.394-9.02 20.449-19.798 1.766-18.008 1.766-36.271 0-54.279-1.056-10.779-9.656-19.105-20.449-19.799-25.64-1.65-51.638-1.65-77.277 0-10.793.693-19.394 9.021-20.449 19.799-1.765 18.008-1.765 36.27 0 54.278 1.056 10.779 9.656 19.106 20.449 19.799 10.336.665 20.73 1.048 31.136 1.177v58.912c-87.693-1.248-175.882-1.162-263.669.257v-65.645c15.338-.137 30.664-.67 45.896-1.65 13.543-.871 24.334-11.32 25.658-24.845 2.43-24.787 2.43-49.923 0-74.709-1.324-13.525-12.115-23.975-25.658-24.846-35.434-2.279-71.365-2.279-106.799 0-13.544.869-24.335 11.318-25.66 24.843-2.43 24.787-2.43 49.923 0 74.709 1.324 13.525 12.115 23.975 25.658 24.846 15.235.98 30.562 1.513 45.902 1.65v65.894c-27.802.498-55.558 1.125-83.238 1.89-3.17.087-5.942 2.159-6.924 5.174-14.309 43.926-14.309 88.47 0 132.396.982 3.016 3.755 5.087 6.925 5.174 18.307.503 36.339.944 53.597 1.312.054.001.108.001.162.001 4.068 0 7.408-3.253 7.495-7.34.089-4.141-3.197-7.57-7.339-7.658-15.541-.331-31.713-.722-48.147-1.164-11.212-37.534-11.211-75.513 0-113.047 42.308-1.143 84.789-1.965 127.336-2.482 5.76 17.66 13.289 36.63 23.422 59.006-10.135 22.382-17.665 41.356-23.426 59.02-16.449-.201-32.875-.447-49.269-.743-.046-.001-.092-.001-.138-.001-4.079 0-7.422 3.27-7.496 7.365-.074 4.142 3.223 7.56 7.364 7.634 40.058.723 80.295 1.152 120.616 1.31v28.312c-17.593.14-35.172.771-52.643 1.896-14.799.952-26.592 12.372-28.039 27.152-2.732 27.884-2.732 56.161 0 84.045 1.448 14.781 13.24 26.2 28.039 27.151 19.954 1.284 40.049 1.926 60.144 1.926s40.19-.642 60.145-1.926c14.799-.952 26.591-12.371 28.039-27.151 2.732-27.884 2.732-56.162 0-84.046-1.448-14.78-13.24-26.199-28.039-27.151-17.472-1.124-35.052-1.756-52.646-1.896v-28.278c6.27.014 12.537.042 18.811.042 79.613 0 159.44-1.097 238.625-3.287 3.17-.087 5.942-2.159 6.924-5.174 14.308-43.927 14.308-88.472 0-132.398zm-158.287-88.921c-1.669-17.038-1.669-34.315 0-51.353.336-3.426 3.062-6.072 6.484-6.292 12.5-.804 25.088-1.206 37.676-1.206s25.176.402 37.676 1.206c3.422.22 6.148 2.866 6.484 6.292 1.67 17.038 1.67 34.315 0 51.354-.336 3.426-3.062 6.072-6.484 6.292-25 1.608-50.352 1.608-75.352 0-3.422-.22-6.148-2.866-6.484-6.293zm-298.645-11.995c-2.333-23.816-2.333-47.968 0-71.785.604-6.173 5.522-10.942 11.693-11.339 17.396-1.119 34.917-1.679 52.437-1.679s35.039.56 52.437 1.679c6.171.397 11.089 5.166 11.693 11.339 2.333 23.816 2.333 47.968 0 71.785-.604 6.173-5.522 10.942-11.693 11.339-34.796 2.239-70.081 2.238-104.873 0-6.171-.396-11.089-5.165-11.694-11.339zm258.329 300.519c2.637 26.914 2.637 54.207 0 81.12-.729 7.429-6.647 13.167-14.074 13.646-39.27 2.525-79.093 2.525-118.362 0-7.427-.478-13.346-6.216-14.074-13.646-2.637-26.914-2.637-54.207 0-81.12.729-7.429 6.647-13.168 14.074-13.646 19.635-1.263 39.407-1.895 59.181-1.895s39.546.632 59.182 1.895c7.426.479 13.345 6.218 14.073 13.646zm143.776-133.405c-8.459 17.545-19.432 36.664-33.412 58.227-16.384.298-32.782.548-49.189.753 9.482-17.154 19.679-36.347 28.67-55.838.919-1.994.919-4.29 0-6.283-8.991-19.491-19.188-38.684-28.67-55.838 16.415.204 32.812.457 49.19.754 13.979 21.562 24.952 40.68 33.411 58.225zm-279.86 59.192c5.662-16.685 13-34.773 22.736-56.074.905-1.98.905-4.255 0-6.235-9.734-21.296-17.071-39.38-22.732-56.063 59.983-.62 120.072-.623 179.982 0 9.957 17.817 21.084 38.321 30.861 59.18-9.776 20.858-20.903 41.362-30.86 59.179-60.048.629-120.159.632-179.987.013z"/><path d="m68.138 56.819h80.562c4.143 0 7.5-3.358 7.5-7.5s-3.357-7.5-7.5-7.5h-80.562c-4.143 0-7.5 3.358-7.5 7.5s3.357 7.5 7.5 7.5z"/><path d="m122.732 78.5c0-4.142-3.357-7.5-7.5-7.5h-47.094c-4.143 0-7.5 3.358-7.5 7.5s3.357 7.5 7.5 7.5h47.095c4.142 0 7.499-3.358 7.499-7.5z"/><path d="m363.546 79.029h47.096c4.143 0 7.5-3.358 7.5-7.5s-3.357-7.5-7.5-7.5h-47.096c-4.143 0-7.5 3.358-7.5 7.5s3.357 7.5 7.5 7.5z"/><path d="m398.577 100.71c0-4.142-3.357-7.5-7.5-7.5h-27.531c-4.143 0-7.5 3.358-7.5 7.5s3.357 7.5 7.5 7.5h27.531c4.143 0 7.5-3.358 7.5-7.5z"/><path d="m269.645 433.38h-80.563c-4.143 0-7.5 3.358-7.5 7.5s3.357 7.5 7.5 7.5h80.563c4.143 0 7.5-3.358 7.5-7.5s-3.358-7.5-7.5-7.5z"/><path d="m181.581 410.696c0 4.142 3.357 7.5 7.5 7.5h80.563c4.143 0 7.5-3.358 7.5-7.5s-3.357-7.5-7.5-7.5h-80.563c-4.142 0-7.5 3.358-7.5 7.5z"/><path d="m236.176 463.565h-47.095c-4.143 0-7.5 3.358-7.5 7.5s3.357 7.5 7.5 7.5h47.095c4.143 0 7.5-3.358 7.5-7.5s-3.358-7.5-7.5-7.5z"/></g></svg>